<?xml version="1.0" encoding="UTF-8"?>
<svg data-bbox="1478.63 1872.13 6800.19 3200.09" viewBox="0 0 11000 8500" height="816" width="11in" xmlns="http://www.w3.org/2000/svg" shape-rendering="geometricPrecision" text-rendering="geometricPrecision" image-rendering="optimizeQuality" fill-rule="evenodd" clip-rule="evenodd" data-type="ugc">
    <g>
        <path fill="#fefefe" d="M1478.63 5072.22h6800.19V1872.13H1478.63v3200.09z"/>
        <path d="m1592.67 4543.67-3.13-62.44c31.49 8.98 50.28 61 70.24 83.54 72 81.29 38.96 27.29 92.84 83.86 103.67 108.82 177.15 106.18 203.15 129.46 1.59 1.43 2.84 3.15 4.22 4.59l7.73 10.97c-19.93 16.52 21.98 7.27-33.85 13.95-35.19 4.21-72.18-21.78-92.68-18.7 20.28 11.4 19.65 14.15 28.54 34.4-31.82-6.48-40.48-17.02-71.78-27.38 11.37 27.93 39.44 33.35 63.39 45.26 23.47 11.67 45.7 26.67 72.48 33.97-.1-.04-3.93-26.09-18.31 24.54-.84 2.97-1.45 6.12-1.87 9.24 54.44-7.34 14.88-7 47.05-17.43 14.38-4.66 43.36 8.24 58.01 16.07 1.34.72 2.96 1.77 4.31 2.51l55.91 20.21c90.74 21.97 108.38 12.8 157.29 30.84 52.49 19.37 96.7.2 134.31 11.24 45.94 13.47.39 13.72 99.98 15.9 68.67 1.5 158.19 6.47 225.38-1.68 42.9-5.2 22.7-17.04 86.72-16.5 35.42.3 82.07 2.94 116.1-2.93 16.66-2.87 32.95-10.07 43.19-13.17 31.06-9.4 26.31 3.4 66.44-14.21 43.06-18.89 36.6-5.32 74.07-11.96l185.13-68.3c5.95-2.46 16.36-8.18 18.33-9.19 13.22-6.77 26.95-13.65 40.6-20.31 55.12-26.91 54.54-53.17 54.29-53.74-59.63 22.62-139.02 40.98-172.4 19.98-.06-18.49-9.11-3.15 14.69-18.29 52.26-33.26 127.17-31.63 245.54-154.66l37.37-43.42c.89-1.22 2.07-2.82 2.95-4.05l37.35-69.68c6.5-29.4 2.96-27.34 17.95-36.05 6.64 9.53 4.36 2.5 7.74 18.15 1.19 5.49 2 21.14 1.68 26.84-.85 15.49-4.96 33.41-8.96 47.97-8.64 31.45-21.02 56.07-29.23 87.87 71.76-61.59 72.85-203.15 35.83-285.05-20.36-45.06-43.02-70.8-74.66-103.34-58.73-60.4-12.47-149.79-40.76-216.54-13.88-32.75-7.19-214.96-7.07-257.91.7-255.92-17.8-158.8-20.42-244.22-4.23-137.72-12.43-37.94-20.8-163.8l-97.06-259.37c-30.93-62.7-28.16-33.85-66.15-100.49-6.41-11.25-12.44-17.38-20.39-26.71l-116.66-134.38c-129.56-124.21-120.73-92.02-239.19-168.52-12.66-8.18-10.21-10.6-31.76-20.19 20.54 44.03 36.3 35.4 20.02 106.92-14.49 9.18-56.27 30.2-75.65 38.26-70.04 29.11-24.41-30.78-22.73-34.87-36.11 1.52-36.81-1.97-59.37 12.64-1.2.78-2.72 2.02-3.89 2.83-1.19.81-2.76 2-3.93 2.84-12.54 8.95-33.2 20.81-30.25 39.27l52.93 6.96c11.93 52.33-10.4 38.19 25.31 76.72 18.4 19.85 30.43 33.31 64.57 19.4 3.42 7.65-.52-7.52 3.96 8.59 6.66 23.96-6.03 11.47-10.2 38.96-10.18 67.16 12.16 44.73-22.63 61.57l10.33 40.08c-19.44 40.05-9.45 29.9 30.45 41.71 31.87 9.43 11.51 36.32 1.64 125.81-19.26 12.45-31.76 24.01-63.93 28.17-65.38 7.3-111.99 65.92-325.26.07-60.83-18.78-51.16-27.11-58.82-47.45-29.43-16.97 12.43 16.89-12.17-8.74-18.68-19.46-6.24-89.09-5.41-113.96 14.41-7.74 21.19-3.49 31.47-12.14l4.91-6c.82-1.35 2.15-5.74 2.61-7.32l-.11-31.33c-12.11-37.77-36.91-18.48.45-59.44-12.2-25.79-15.56-12.08-21.23-53.38 54.63 1.37 47.62 1.64 74.88-27.09 33.76-35.56 15.24-26.4 31.52-74.43l36.39-7.19-12.87-36.62c-26.02-3.57-40.59-16.07-49.28-16.13-43.44-.34-8.19 5.52-27.13 38.31l-94.83-48c-57.57-55.26 36.58-118.11 47.27-129.75l53.33 22.28c-.52-9.67-1.69-19.07-.64-28.31 2.1-18.5-.15-11.28 7.03-21.59 49.41 14.92 5.8 3.88 21.8 41.84 35.57-16.21 34.34-20.45 34.94-51.11.03-1.57.02-3.41.06-5.07 3.9-159.5-10.08-83.87-16.27-134.13l-1.91-145.9 49.76-5.97 5.42-.63c3.8-21.41 8.81-12.63-12.47-23.31-27.41-13.76-66 4.22-111.22-2.8l1.73-51.95c-10.83 6.43-9.98 2.96-20.68 10.7 4.07 60.07-6.31 118.61-.56 172.71 6.95 65.38 9.81 96.44-8.7 142.84-8.62 21.59-4.92 42.71-13.47 62.58-9.87 22.95-7.33 10.06-28.19 33.06-30.07 33.17-4.6 18.68-60.36 48.88-9.56 5.18-51.5 27.95-53.46 29.53-15.94 12.81 20.7-18.65-6.84 7.13-.73.68-9.28 8.18-9.65 8.46-67.24 48.56-100.64 72.94-164.74 140.93-38.98 41.35-112.57 111.27-138.93 158.46-10.28 18.4-7.88 13.43-21.35 28.57l-102.6 232.95c-15.29 83.26-13-4.74-22.04 105.69-3.76 45.94-13.37 26.33-16.8 67.19-3.06 36.32.89 141-7.17 166.13-9.74 30.37-10.86.85-12.08 71.95l-5.13 521.1c-24.18 3.37-23.72-.49-42.78 10.32l-82.49 142.22c-8.06 38.65-27.93 26.62-21.12 102.25 5.36 59.55 14.56 40.79 24.9 41z" fill="#e0e2e3"/>
        <path d="M6613.51 3808.49c14.11 36.2 35.18 10.98 55.04 42.98 24.14 38.89 9.7 445.43 2.65 510.04-11.28 2.63-24.95 2.27-30.13 15.23l-.31 9.63c-.07 1.09.18 3.7.85 5.4 108.78 5.43 155.82 6.97 260.08-2.95-15.96-18.23-19.02-14.66-39.06-25.44-13.33-96.87-5.37-291.26-5.21-398.61.2-141.66 166.2-169.59 166.2-54.35 0 120.43 5.4 343.57-4.86 452.43-7.66 3.41-9.56 2.06-18.24 7.18l-21.17 18.8c93.59 11.27 173.77 6.06 271.91 4.61-18.78-32.88-7.87-13.23-41.72-30.72-13.75-144.34-7.76-231.25-7.41-377.56 0-64.36 7.19-81.71 37.6-114.83 29.48-32.09 109.13-49.27 125.35-5.92.85 2.26 3.15 11.16 3.51 13.07 8.06 42.89 5.22 418.43-.97 487.5-33.06 11.96-29.79-2.85-40.04 24.2 15.8 7.77 243.29 12.88 268.87 2.2 29.22-12.21 3.68.69 17.37-12.15-73.81-36.78-63.48-.31-63.48-217.42 0-66.1 7.67-223.08-4.76-278.75-5.46-24.49 9 4.92-20.03-34.21-58.07-78.25-183.84-83.29-261.39-35.8-34.51 21.13-49.73 57.31-72.3 70.15-1.07-1.46-2.07-5.88-2.44-4.86-.37 1.02-1.88-3.76-2.39-4.85-60.39-126.81-223.66-103.22-287.75-45.06-12.09 10.97-19.39 24.46-32.51 33.44-17.32-26.32-2.39-59.92-15.72-73.17-15.26-15.17-48.59 5.91-62.59 9-52.05 11.47-133.02-12.8-174.96 10.81z" fill="#912ca7"/>
        <path d="M2495.52 2208.37c-41.79-5.85-62.62 16.45-88.6 30.69l-1.73 51.95c45.22 7.02 83.8-10.96 111.22 2.8 21.28 10.68 16.27 1.9 12.47 23.31 27.09-4.67 42.88-7.07 70.72-7.27 62.63-.43 67.52 1.48 73.17 31.63l2.5 318.34c2.86 30.8 8.15 32.33 29.2 39.45-32.7-4.38-7.84 8.29-16.61 33.26-28.96 12.87-55.89 6.89-74.57 10.84l-64.45-1.28c-35.77-3.37-18.89 15.02-56.99-13.87 2.67-46.61 4.84-7.87 16.38-42.93 19.41-59.01-15.87-325.4 15.24-367.54l-49.76 5.97 1.91 145.9c6.19 50.26 20.17-25.37 16.27 134.13-.04 1.66-.03 3.5-.06 5.07-.59 30.66.63 34.9-34.94 51.11-16.01-37.96 27.6-26.92-21.8-41.84-7.18 10.31-4.93 3.09-7.03 21.59-1.04 9.24.12 18.65.64 28.31l-53.33-22.28c-10.69 11.63-104.85 74.49-47.27 129.75l94.83 48c18.95-32.8-16.31-38.66 27.13-38.31 8.69.07 23.26 12.56 49.28 16.13l12.87 36.62-36.39 7.19c-16.27 48.03 2.24 38.87-31.52 74.43-27.26 28.73-20.26 28.45-74.88 27.09 5.67 41.3 9.02 27.59 21.23 53.38-37.37 40.97-12.56 21.67-.45 59.44l.11 31.33c-.46 1.58-1.79 5.96-2.61 7.32l-4.91 6c-10.29 8.65-17.06 4.4-31.47 12.14-.82 24.88-13.26 94.5 5.41 113.96 24.6 25.64-17.26-8.23 12.17 8.74l2.06-15.7c.26-1.12.9-3.46 1.19-4.54l3.24-9.6c28.37 2.32 20.25 5.36 45.29 19 14.8 8.06 30.12 12.24 44.59 16.62 29.57 8.96 208.19 10.6 242.32 4.67 31.28-5.43 60.97-27.28 88.93-38.7 3.31 58.85-16.35 38.09-43.52 75.64 32.18-4.17 44.67-15.72 63.93-28.17 9.87-89.49 30.23-116.38-1.64-125.81-39.9-11.81-49.89-1.66-30.45-41.71l-10.33-40.08c34.8-16.84 12.46 5.58 22.63-61.57 4.17-27.49 16.86-15 10.2-38.96-4.48-16.11-.55-.94-3.96-8.59-34.14 13.92-46.17.45-64.57-19.4-35.71-38.53-13.39-24.39-25.31-76.72l-52.93-6.96c-2.95-18.45 17.7-30.32 30.25-39.27 1.17-.83 2.75-2.02 3.93-2.84 1.17-.81 2.69-2.06 3.89-2.83 22.56-14.61 23.26-11.13 59.37-12.64-1.68 4.08-47.31 63.98 22.73 34.87 19.38-8.06 61.16-29.08 75.65-38.26 16.28-71.52.53-62.89-20.02-106.92-30.43-38.03-78.64-16.15-81.59-15.92 15.19-40.64-14.56-9.1 28.78-56.01 25.82-27.95-15.2-12.33-41.33-25.12-.01-.02-24.96-87.22 6.94-117l9.11-6.74c-.98-1.55-3.36-5-3.99-3.79-.2.38-20.29-8.59-20.21-50.56-.01-23.13 6.88-66.43-10.54-77.19-27.74-17.15-38.63 18.1-49.04-24.38 133.26-6.21 51.36 33.94 94.91 53.56 16.78-43.01 13.94-95.28-16.57-118.1-18.25-13.65-29.55-14.68-50.88-24.87-27.39-13.09-18.7-18.42-40.29-34.23-5.07 25.8 9.54-.95 16.84 41.26.08.45.2 2.12.25 2.57l-1.21 21.21c-20.49 61.71-142.19 39.02-164.89 30.15-2.94-8.1-4.95-15.67-3.59-27.77 3.16-27.95-10.93-19.59 12.63-20.75l-26.15-8.38z" fill="#a8aaac"/>
        <path d="M7875.68 3785.32c13.3 34.8 31.69.81 82.35 45.38 34.76 30.59 25.22 89.46 25.22 154.44 0 74.57-32.44 72.7-154.45 120.07-92 35.72-175.54 81.86-152.23 205.47l13.99 33.37c17.08 32.89 52.71 57.8 94.19 65.38 49.05 8.96 90.36-.89 122.34-16.15 41.53-19.83 35.8-22.61 61.81-45.55 20.23-17.85 2.36-8 24.61-15.46 16.68 28.78 6.38 33.41 32.29 55.65 47.55 40.79 106.73 20.53 146.55 9.26 27.62-7.82 47.02-13.48 51.04-43.43-35.42 9.22-10.42 22.59-56.85 8.69-15.8-97.07 11.31-373.39-9.24-433.45-17.15-50.13-26.45-98.01-87.11-123.53-42.24-17.77-133.09-39.54-194.5-20.13z" fill="#912ca7"/>
        <path d="M4057.78 1974.04v2982.68c0 44.13.05 44.76 43.11 44.76 24.54 0 18.83-18.77 18.83-44.76V1974.04c0-35.53 5.69-44.76-25.62-44.76-36.77 0-36.31 4.02-36.31 44.76z" fill="#32cc9e"/>
        <path d="M5858.48 3785.42c8.56 23.56-5.12 10.34 51.63 22.31 26.73 5.64 41.14 18.41 58.81 39.76 16.1 19.44.54-13.79 7.76 15.07 8.55 34.21 14.55 136.53-7.34 163.77-87.34 108.66-296.07 50.39-296.07 244.17 0 82.46 32.41 136.26 118.93 141.15 84.35 4.76 129.43-27.56 181.55-79.98 24.22 23.75 24.91 43.62 36.2 53.85 41.27 37.4 133.09 35.4 192.76-4.54 18.83-12.6 19.57-12.47 19.41-24.19-27.86-5.98-26.3 6.71-38.92 9.42-51.78 11.12-35.63-107.16-35.62-136.48l-2.42-313.04c-2.98-26.28-20.88-59.63-33.59-74.09-50.84-57.85-194.74-76.52-253.1-57.19z" fill="#912ca7"/>
        <path d="m4636.4 3975.15-1.31 36.22c35.24-20.89 257.4-2.46 301-6.8l1.37 342.72c-32.85 10.5-9.89 9.02-33.15 19.95-33.12 15.56-32.63-6.54-47.77 20.68 32.97 17.85 128.46 6.75 175.04 6.76 31.69.01 63.47-.62 95.13.41 41.18 1.34 61.69 8.38 83.87-18.3l-60.57-13.31c-11.86-61.37-11.36-667.74-2.76-740.31 58.74-40.68 62.08-8.41 79.76-39.39-29.8-10.71-338.19-11.72-372.21-2.32 13.9 33.23-6.75-4.2 64.48 36.8 19.11 11-6.19-4.87 16.17 5.92 3.91 94.92 11.07 262.78-1.74 352.25-23.29 12.64-249.42 16.28-297.3-1.3z" fill="#912ca7"/>
        <path d="m4635.09 4011.37 1.31-36.22c-9.69-68.27-3.59-169.3-3.75-241.41-.11-45.2-6.72-75.35 15.94-104.37 30.49-39.04 63.01-18.7 80.52-45.1-26.29-12.52-329.99-11.8-363.84-3.22 16.37 44.73 41.97.08 70.48 46.72 21.91 35.85 11.45 297.21 11.45 350.57 0 39.01 4.32 339.39-4.15 363.66-5.83 16.7-16.4 22.23-32.86 27.17-34.58 10.36-29.9-5.77-43.11 18.82 36.35 19.01 114.06 6.67 161.79 6.69l142.73.84c43.58-7.95-35.57 12.6 12.47-3.66 2.08-.7 4.25-2.12 5.91-2.78 1.67-.67 4.02-1.83 5.81-3.09-13.61-23.98-4.09-5.52-35.29-24.16-36.02-21.52-27.93-59.91-27.83-125.31.09-65.86-5.7-163.41 2.44-225.15z" fill="#912ca7"/>
        <path d="M6330.7 3944.37c0 80.79 4.53 493.17-4.72 546.81-6.37 36.91-37.55 87.27-87.84 101.84-32.7 9.48-20.91-5.39-30.02 17.19 46.94 29.86 210.88-4.11 261.33-131.02 27.94-70.27 26.39-63.93 26.39-181.52 0-146.37 4.33-360.67-1.21-499.08l-243.72 5.13c6.95 20.1 8.78 13.98 25.45 22.75 57.14 30.07 54.35 56.48 54.35 117.9z" fill="#912ca7"/>
        <path d="m5188.38 2824.54 1.64 32.79 36.65 5.62c8 86.7 3.41 209.27 3.31 300.09 0 61.5-9.36 30.76-41.19 60.74 82.43 17.32 95.04 8.73 195.7 7.8-16.35-43.67-33.25 2.44-33.25-68.54 0-50.55-7.43-229.25 7.86-262.53 12.23-26.62 15.17-39.32 40.16-48.72 40.02-15.04 75.28 1.53 75.28 59.86 0 43.85 7.32 254.17-5.72 280.95-15.35 31.52-13.48 13.27-25.19 24.04-33.16 30.49 161.29 13.56 192.94 7.93-17.52-21.43-16.07-9.44-38.04-23.87l-1.86-328.69c1.52-5 6.41-12.65 6.43-12.69 7.96-14.63 6.79 1.19 5.06-8.36-15.79-5.77-1.26.61-27.28 13.54-35.21-67.02-159.16-54.97-198.11-22.57-22.54 18.74 1.33 7.22-25.1 18.3l-10.43-47.28c-13.74-.78-38.98 9.02-70.8 9.76-29.7.7-58.19.35-88.05 1.83z" fill="#32cc9e"/>
        <path d="M5290.06 3808.49c9.87 26.81-7.75 4.57 26.93 21.09 31.54 15.02 30.01 18.53 36.02 46.99 3.63 17.22 6.49 21.2 10.82 33.33 12.52 35.1 7.19 317.45 5.21 374.57-.5 14.44-1.19 29.31-3.39 43.17l-3.94 14.06c-25.31 46.43-57.65 9.38-70.39 47.07 30.09 17.06 166.79 4.31 236.38 6.99 39.34 1.51 49.66 3.67 69.67-19.93-87.15-20.82-62.92-65.04-62.92-261.59 0-61.73 11.22-289.85-6.86-326.7-12.88-3.65-25.18 6.69-42.63 9.82-19.33 3.47-45.89 3.12-66.12 3.67-22.75.62-45.34.65-68.11.38-37.18-.44-43.39-4.16-60.66 7.08z" fill="#912ca7"/>
        <path d="m4652.81 3007.54-141.04-1.42c-.24-3.95-.78-8.32-.84-7.31-.01.19-10.53 5.63 10.59-39.28 6.81-14.47 4.22-8.33 8.2-25.57l6.85-23.56c1.62-3.27 6.24-10.16 10.1-19.36l5.48-15.15c.35-.81 1.19-2.57 1.57-3.38.4-.84 1.35-2.57 1.78-3.43 9.56-19.04 16.84-43.25 7.33-60.78-22.91 13.17-1.17-6.05-15.98 26.35l-84.1 213.83c-.5.93-1.72 2.63-2.21 3.5-.43.79-1.63 2.37-2.04 3.12l-25.16 66.98c-13.65 30.69-23.11 59.44-46.63 82.52-25.35 24.87-14.33 2.24-17.87 23.67l140.91 2.54c-8.5-35.61-20.49-11.24-46.46-36.63-11.49-11.23-16.29-27.79-11.61-49.22 2.58-11.81 32.45-105.11 43.22-111.96 54.25-10.9 112.88-7.25 173.89-7.25l7.76 25.46c2.1 5.72 1.81 4.26 4.45 9.7 24.87 51.28 35.88 76.32 34.52 146.12l-41.88 13.93c42.31 22.24 167.98 11.87 224.71 11.87-3.52-30.39-15.24-27.88-31.54-51.07-.4-.57-1.47-2.16-1.8-2.74l-118.48-314.56c-.47-.94-1.6-2.7-2.07-3.6l-42.19-105.92c-12.1-23.97-15.69-107.84-72.82-89.03-22.71 7.48-14.86 4.61-26.5 19.5-8.98 11.49-8.39 35.65-21.36 60.06l-5.23 9.81c-13.11 32.81-6.84 33.68 7.99 52.9 26.63 34.52 14.41 22.58 29.93 64.61l21.44 68.02c.26 1.27.6 3.33.9 4.48 3.39 12.96 16.75 28.21 16.21 62.26z" fill="#32cc9e"/>
        <path d="M4934.94 2626.29c6.91 47.28.2-16.63 37.81 37.06 18.25 26.04 14.44 429.43 9.96 493.38l-3.32 29.81c-3.59 19.44.25 13.37-22.31 21.07-27.25 9.31-11.69-8.5-21.9 16.57 25.99 14.86 188.3 11.31 209.54-1.08l-37.91-17.53c-9.71-57.4-3.74-483.07-3.74-577.07-32.45-11.39-37.95-10.82-78.24-10.04-55.85 1.08-70.16-3.24-89.9 7.83z" fill="#32cc9e"/>
        <path d="m2528.88 2317.11-5.42.63c-31.11 42.13 4.17 308.53-15.24 367.54-11.54 35.07-13.72-3.68-16.38 42.93 38.1 28.88 21.22 10.5 56.99 13.87l64.45 1.28c18.68-3.94 45.62 2.03 74.57-10.84 8.77-24.97-16.09-37.63 16.61-33.26-21.05-7.12-26.34-8.65-29.2-39.45l-2.5-318.34c-5.65-30.15-10.54-32.06-73.17-31.63-27.84.19-43.63 2.59-70.72 7.27z" fill="#bc9014"/>
        <path d="M6592.83 2830.12c7.01 18.98 11.8 13.37 28.73 33.88 21.66 26.24 14.93 240.96 12.64 285.91l-3.19 31.57c-3.28 22.04-2.38 14.5-18.61 25.37-18.49 12.37-10.41-.83-19.28 19.76 30.13 11.17 195.48 10.37 224.16-1.52-49.1-52.59-63.7 42.94-63.41-136.78.1-60.43-4.77-139.17 5.85-197.04l-12.64-15.98c-19.93-39.38 15.12-50.71-36.43-54.76-32.09-2.52-94.71-2.99-117.82 9.6z" fill="#32cc9e"/>
        <path d="M2496.04 3186.83c50.1 5.6 86.16 12.09 137.5 5.5 18.87-2.43 49.31-4.77 66.15-7.8 21.35-3.84 22.96-10.67 37.99-22.96l-22.13-18.67c-.65-.97-1.55-2.66-2.03-3.67l-2.72-48.27c-58.01-40-23.77-24.48-39.86-101.12-62.71-7.78-125.39.53-177.07 6.34-3.24 104.3-24.96 36.95-37 92.44-6.5 29.96 3.56 32.7 15.26 44.14-7.4 17.29-3.98 6.16-13.72 18.96-7.76 10.19-2.52-2.49-10.75 13.74 22.8 4.95 35.88 14.44 48.39 21.35z" fill="#686c75"/>
        <path d="M5844.06 3232.66c-3.3-69.37-34.64 16.94-27.61-273.48 1.82-75.25 6.83-58.24 18.18-91.86 11.29-33.46 48.24-41.46-.6-46.24-26.26-2.57-45.9 10.15-62.97 20.39-84.3 50.51-80.92 107.29-77.58 233.3 2.55 96.2 53.17 162.96 150.59 157.89z" fill="#32cc9e"/>
        <path d="M6300.85 3233.75c-29.95-99.13-35.22-33.96-34.59-206.6.77-209.32 22.93-129.88 40.56-206.6-61.1 1.23-103.12 26.16-127.95 56.36-38.87 47.27-45.67 159.95-32.64 231.7 3.88 21.35 3.14 13.05 10.58 29.02l6.22 13.63c6.26 13.93 2.15 7.93 8.99 19.31 26.28 43.68 75.86 63.33 128.85 63.19z" fill="#32cc9e"/>
        <path d="M5917.74 3234.35c49.42-1.58 81.61-14.11 112.24-44.51 16.63-16.5 47.24-86.47 50.26-110.35 11.58-91.34-4.41-91.64-14.4-134.45-8.66-37.11-15.38-47.42-29.77-70.81-24.99-40.63-88.99-54.6-137.5-53.16 9.92 38.12 16 18.85 34.16 49.24l25.14 82.52.56 142.7c-.63 11.61-.69 18.08-2.48 29.35l-33.75 87.98c-3.71 11.03-3.59-2.57-4.47 21.49z" fill="#32cc9e"/>
        <path d="M6367.17 3233.48c183.04 3.7 197.19-232.76 126.81-350.7-25.14-42.13-78.06-59.55-128.1-62.69 8.53 74.02 44.33 44.87 44.45 207.06.13 191.49-34.58 126.93-43.17 206.33z" fill="#32cc9e"/>
        <path d="M1592.67 4543.67c11.49 67.31 31.56 94.85 79.22 145.06l89.05 80.67c23.07 13.06 24.43 4.93 37.01 26.54 31.3 10.36 39.96 20.91 71.78 27.38-8.89-20.25-8.26-23-28.54-34.4 20.5-3.08 57.49 22.91 92.68 18.7 55.83-6.68 13.91 2.56 33.85-13.95l-7.73-10.97c-1.37-1.44-2.63-3.17-4.22-4.59-26-23.28-99.48-20.64-203.15-129.46-53.89-56.57-20.85-2.57-92.84-83.86-19.96-22.54-38.75-74.56-70.24-83.54l3.13 62.44z" fill="#7d8188"/>
        <path d="M5408.16 3503.99c-62.44 21.85-93.01 45.01-65.25 107.37.6 1.35 1.43 3.12 2.04 4.5 32.51 74.34 110.24 72.38 148.82 49.85 26.99-15.76 57.02-45.17 56.45-80.1l-3.11-32.11c-6.87-22.92 13.08 11.36-6.37-11.25-25.16-29.24-81.27-56.21-132.57-38.26z" fill="#912ca7"/>
        <path d="M6386.57 3502.75c-23.02 8.74-47.45 9.02-65.33 25.76-47.56 44.53-5.86 190.41 122.73 143.09 57.86-21.29 78.06-55.49 63.1-114.77l-3.79-9.9c-17.9-31.99-77.37-59.11-116.71-44.19z" fill="#912ca7"/>
        <path d="M5980.02 4067.99c-19.79-.83-16.54.91-31.47 10.99-73.97 49.96-110.26 79.27-111.87 150.62-.78 34.44-3.4 70.38 17.63 87.92 36.14 30.13 97.34 11.32 120.25-27.35 16.72-28.23 10.3-187.74 5.46-222.17z" fill="#fefefe"/>
        <path d="M2496.04 3186.83c-12.5-6.92-25.59-16.41-48.39-21.35 8.23-16.23 2.99-3.56 10.75-13.74 9.74-12.8 6.31-1.67 13.72-18.96-11.71-11.44-21.77-14.19-15.26-44.14 12.04-55.49 33.77 11.86 37-92.44 51.68-5.81 114.36-14.12 177.07-6.34 16.09 76.64-18.15 61.12 39.86 101.12l2.72 48.27c.48 1 1.38 2.7 2.03 3.67l22.13 18.67-1.7-190.98c-53.56-14.6-31.42-5.19-44.53-48.71l-198.62 12.1c-12.3 31.6 2.2 16.14-14.26 25.66-16.33 9.44-25.94-3.8-41.51 12.4-15.72 16.35 26.28 26.88 5.58 83.52-8.48 23.2-10.33-1.83-12.54 38.96-6.15 113.5.1 98.76 65.94 92.31z" fill="#7d8188"/>
        <path d="M7982.43 4082.76c-44.88.19-107.01 53.21-120.38 76.63-95.96 168.13 99.62 223.09 119.98 124.93 6.15-29.63 1.69-163.77.4-201.56z" fill="#fefefe"/>
        <path d="M3380.75 4776.28c34.41-13.16 58.39-31.95 83.29-55.58 15.04-14.27 23.56-23.81 36.2-38.46 13.02-15.09 19.15-28.19 35.2-31.3 8.21-31.81 20.59-56.43 29.23-87.87 4-14.56 8.11-32.48 8.96-47.97.31-5.7-.5-21.35-1.68-26.84-3.38-15.65-1.1-8.62-7.74-18.15-14.99 8.71-11.45 6.65-17.95 36.05l-37.35 69.68c-.88 1.23-2.07 2.83-2.95 4.05l-37.37 43.42c-118.37 123.03-193.29 121.4-245.54 154.66-23.8 15.15-14.75-.2-14.69 18.29 33.39 21 112.77 2.64 172.4-19.98z" fill="#686c75"/>
        <path d="M5864.05 3923.99c0-51.96-15.08-62.91-46.89-85.21 8.17-26.33 21.25-15.85 17.53-32.77-30.56-13.12-162.56 24.67-135.96 144.31 9.99 44.94 87.3 88.3 143.3 29.91 17.92-18.68 22.03-24.28 22.03-56.24z" fill="#912ca7"/>
        <path d="M7711.3 3917.2c0 47.03 2.41 73.04 46.94 86.04 19.17 5.6 37.08 5.87 56.82 1.01 20.77-5.11 26.65-11.01 38.78-23.35 53.32-54.24 19.75-107.75-35.94-146.26 20.03-41.35 14.28 17.04 23.01-36.14-35.67 2.99-61.96 16.33-88.04 34.14-28.59 19.54-41.57 35.68-41.57 84.55z" fill="#912ca7"/>
        <path d="M2368.88 3238.91c7.66 20.34-2.01 28.67 58.82 47.45 213.28 65.85 259.89 7.23 325.26-.07 27.17-37.54 46.83-16.79 43.52-75.64-27.96 11.42-57.65 33.26-88.93 38.7-34.13 5.93-212.75 4.28-242.32-4.67-14.47-4.38-29.8-8.56-44.59-16.62-25.04-13.63-16.92-16.68-45.29-19l-3.24 9.6c-.28 1.08-.92 3.42-1.19 4.54l-2.06 15.7z" fill="#303647"/>
        <path d="m2530.69 2120.18-.47-3.06c24.42 11.1 19 .81 25.2 26.18 10.02 40.98-23.82 78.67-23.1 89.67 2.48 37.74 94.29 25.88 118.66 16.74 21.75-53.89-51.35-35.39-2.45-147.71 11.17-25.65 7.07-25.65 6.61-32.25l-2.22-12.11c-2.96-17.15-45.97-13.87-60.35-13.75-57.74.46-57.25 3.37-58.59 26-1.05 17.65 6.81 36.43-3.3 50.3z" fill="#b47b03"/>
        <path d="M2530.69 2120.18c10.11-13.87 2.25-32.65 3.3-50.3 1.34-22.62.85-25.54 58.59-26 14.38-.11 57.39-3.39 60.35 13.75l2.22 12.11c.46 6.61 4.56 6.61-6.61 32.25-48.9 112.32 24.2 93.83 2.45 147.71-24.37 9.14-116.18 21-118.66-16.74-.72-10.99 33.11-48.69 23.1-89.67-6.2-25.37-.79-15.08-25.2-26.18 4.31 56.93-3.35 67.99-34.7 91.24l26.15 8.38c-23.56 1.16-9.47-7.2-12.63 20.75-1.37 12.1.65 19.67 3.59 27.77 22.7 8.87 144.4 31.56 164.89-30.15l1.21-21.21c-.04-.45-.17-2.12-.25-2.57-7.3-42.21-21.91-15.46-16.84-41.26-9.67-14.45-6.38-.03-6.59-25.31-.17-19.98 75.76-141.9-35.52-157.17-112.89-15.49-136.5 69.75-88.83 132.58z" fill="#c7a632"/>
        <path d="M6795.66 2827.91c9.7 31.25 17.22.72 20.31 34.78 4.55 50.07-18.65 84.89 42.76 85.69 85.18 1.12 78.14-106.58 31.18-123.87-28.02-10.31-68.24-4.5-94.25 3.4z" fill="#32cc9e"/>
        <path d="M2499.33 2801.26c56.52 14.08 33.79 41.15 86.92 44.11 7.99.44 24-.89 31.47-3.66l9.21-4.85c36.98-24.83-5.55-29.52 52.33-35.73-23.13-34.23-40.79-58.51-140.4-40.21-28.09 5.16-27.67 6.91-44.2 24.07.08.55-1.43 4.79 4.68 16.28z" fill="#8a7a5e"/>
    </g>
</svg>
